<?xml version="1.0" standalone="no"?><!DOCTYPE svg PUBLIC "-//W3C//DTD SVG 1.1//EN" "http://www.w3.org/Graphics/SVG/1.1/DTD/svg11.dtd"><svg t="1614254381820" class="icon" viewBox="0 0 1024 1024" version="1.1" xmlns="http://www.w3.org/2000/svg" p-id="2102" xmlns:xlink="http://www.w3.org/1999/xlink" width="200" height="200"><defs><style type="text/css"></style></defs><path d="M411.607 820.057l398.99-409.996-70.519-72.44-328.47 336.343-127.793-132.592-70.519 72.44 198.311 206.245z m100.34-716.902a46.586 46.586 0 0 0-34.62 14.718 49.21 49.21 0 0 0-14.334 35.58c0 13.95 4.735 26.237 14.334 36.86 9.535 10.622 21.118 15.933 34.62 15.933a44.922 44.922 0 0 0 34.62-15.998 53.497 53.497 0 0 0 14.334-36.795 49.21 49.21 0 0 0-14.334-35.58 46.586 46.586 0 0 0-34.62-14.718z m347.604 0c27.07 0 50.554 10.239 70.456 30.716 19.901 20.414 29.884 44.539 29.884 72.375v714.47c0 27.837-9.983 52.026-29.884 72.44-19.838 20.477-43.387 30.716-70.456 30.716H164.342c-27.068 0-50.553-10.239-70.455-30.716a100.467 100.467 0 0 1-29.884-72.44v-714.47c0-27.836 9.983-51.961 29.884-72.439 19.838-20.477 43.387-30.716 70.455-30.716h207.846c10.367-30.268 28.093-55.033 53.114-74.23C450.515 9.598 479.31 0 511.947 0c32.636 0 61.496 9.599 86.581 28.796 25.085 19.262 42.875 44.027 53.177 74.36h207.846z" p-id="2103"></path></svg>