<?xml version="1.0" standalone="no"?><!DOCTYPE svg PUBLIC "-//W3C//DTD SVG 1.1//EN" "http://www.w3.org/Graphics/SVG/1.1/DTD/svg11.dtd"><svg t="1614254821687" class="icon" viewBox="0 0 1024 1024" version="1.1" xmlns="http://www.w3.org/2000/svg" p-id="7381" xmlns:xlink="http://www.w3.org/1999/xlink" width="200" height="200"><defs><style type="text/css"></style></defs><path d="M351.163733 283.477333c-20.7872 8.533333-56.832 18.295467-81.783466 23.790934a17.066667 17.066667 0 0 0-5.290667 31.197866c2.116267 1.3312 51.8144 31.197867 168.5504 36.283734 6.792533 15.36 11.434667 29.0816 15.633067 41.3696 9.250133 27.2384 16.520533 48.7424 39.2192 59.733333a17.3056 17.3056 0 0 0 17.134933-1.297067c33.314133-23.005867 45.3632-50.141867 55.466667-98.9184 45.6704-1.024 117.111467-10.171733 165.000533-36.727466a17.066667 17.066667 0 0 0-2.013867-30.8224c-16.315733-6.417067-35.498667-11.4688-52.4288-15.940267l-4.7104-1.262933c40.516267-18.7392 84.104533-52.360533 100.9664-97.4848a17.1008 17.1008 0 0 0-12.219733-22.6304c-87.586133-19.7632-149.538133-1.7408-185.002667 15.701333 6.7584-28.535467 19.968-53.418667 45.602134-79.940267a64.034133 64.034133 0 0 0-0.034134-88.234666c-23.1424-23.9616-63.726933-23.9616-86.869333 0l-20.753067 21.504c-31.163733 32.256-56.388267 83.2512-69.973333 136.260266l-0.2048-0.170666c-0.512 1.9456-0.682667 3.925333-1.160533 5.905066-2.2528 9.454933-4.130133 18.875733-5.597867 28.3648-0.477867 3.140267-1.024 6.2464-1.399467 9.386667a293.0688 293.0688 0 0 0-2.594133 36.181333 17.066667 17.066667 0 0 1-34.133333 0c0-30.993067 4.983467-63.624533 13.687466-95.266133-35.669333-13.653333-78.4384-21.265067-96.4608-23.995733a17.066667 17.066667 0 0 0-18.500266 23.005866c1.194667 3.072 27.374933 70.621867 59.869866 124.0064z m441.719467-34.7136a16.9984 16.9984 0 0 0-21.674667 4.164267c-4.369067 5.461333-8.977067 10.717867-13.892266 15.701333a17.066667 17.066667 0 0 0-0.989867 22.766934c6.8608 8.362667 10.8544 18.466133 11.537067 29.184a51.4048 51.4048 0 0 1-26.248534 48.128c-48.5376 26.9312-110.318933 36.010667-142.813866 39.048533a17.066667 17.066667 0 0 0-14.677334 11.810133c-11.810133 36.898133-30.344533 62.498133-60.1088 83.0464a51.746133 51.746133 0 0 1-51.370666 3.959467c-35.601067-17.2032-46.830933-50.2784-57.617067-82.090667l-2.1504-6.382933a16.9984 16.9984 0 0 0-14.609067-11.400533c-98.577067-8.738133-144.008533-34.167467-152.132266-39.185067a50.961067 50.961067 0 0 1-23.552-52.1216 50.9952 50.9952 0 0 1 39.424-41.437867c6.109867-1.365333 12.424533-2.833067 18.7392-4.437333a17.169067 17.169067 0 0 0 11.195733-24.029867l-4.846933-10.171733a17.066667 17.066667 0 0 0-22.596267-8.226133C109.533867 298.7008 17.066667 437.248 17.066667 597.742933c0 234.871467 222.037333 425.949867 494.933333 425.949867s494.933333-191.0784 494.933333-425.949867c0-145.237333-78.0288-272.452267-214.050133-348.9792zM255.453867 843.400533a17.066667 17.066667 0 0 1-23.927467 3.106134c-83.490133-64.136533-131.3792-154.794667-131.3792-248.763734a17.066667 17.066667 0 0 1 34.133333 0c0 84.48 41.915733 163.2256 118.033067 221.696a17.066667 17.066667 0 0 1 3.140267 23.9616z" p-id="7382"></path></svg>