<?xml version="1.0" standalone="no"?><!DOCTYPE svg PUBLIC "-//W3C//DTD SVG 1.1//EN" "http://www.w3.org/Graphics/SVG/1.1/DTD/svg11.dtd"><svg t="1614254586515" class="icon" viewBox="0 0 1024 1024" version="1.1" xmlns="http://www.w3.org/2000/svg" p-id="6267" xmlns:xlink="http://www.w3.org/1999/xlink" width="200" height="200"><defs><style type="text/css"></style></defs><path d="M930.106028 929.035138 90.922291 929.035138 90.922291 89.852424c0-15.493879 2.788509-17.821901-12.70537-17.821901-15.493879 0-12.70537 2.328022-12.70537 17.821901l0 840.632739c0 15.493879 9.490142 23.961738 24.985044 23.961738l839.609433 0c15.493879 0 22.938432 3.811816 22.938432-11.682064S945.598884 929.035138 930.106028 929.035138z" p-id="6268"></path><path d="M220.697983 787.265274c36.735669 0 66.514903-29.780257 66.514903-66.514903 0-15.619746-5.39794-29.971615-14.412244-41.321104l108.452038-144.453996c9.923 5.885034 21.499663 9.275247 33.873482 9.275247 24.289196 0 45.528939-13.025665 57.139372-32.466436l91.662653 55.453986c-1.597381 5.711072-2.469238 11.724019-2.469238 17.944697 0 36.734646 29.779234 66.514903 66.514903 66.514903s66.514903-29.780257 66.514903-66.514903c0-10.513448-2.448772-20.451798-6.791683-29.291117l141.960199-132.046409c10.321066 6.587022 22.571065 10.420327 35.723619 10.420327 36.735669 0 66.514903-29.780257 66.514903-66.514903 0-36.735669-29.779234-66.514903-66.514903-66.514903s-66.514903 29.779234-66.514903 66.514903c0 14.316054 4.538363 27.564799 12.233626 38.417985L672.116209 535.444968c-11.744485-10.43056-27.199479-16.777105-44.142359-16.777105-21.331841 0-40.303938 10.053983-52.476165 25.668613l-94.532003-57.18849c0.435928-3.076058 0.675382-6.215562 0.675382-9.41237 0-36.735669-29.779234-66.514903-66.514903-66.514903s-66.514903 29.779234-66.514903 66.514903c0 15.08251 5.02648 28.986171 13.487176 40.144302L253.307681 662.784168c-9.637498-5.433756-20.756743-8.5487-32.609699-8.5487-36.734646 0-66.514903 29.779234-66.514903 66.514903C154.18308 757.48604 183.962314 787.265274 220.697983 787.265274zM865.380888 326.818417c22.570042 0 40.932248 18.362206 40.932248 40.932248 0 22.570042-18.362206 40.932248-40.932248 40.932248s-40.932248-18.362206-40.932248-40.932248C824.44864 345.180624 842.810846 326.818417 865.380888 326.818417zM627.97385 544.250518c22.570042 0 40.932248 18.362206 40.932248 40.932248 0 22.570042-18.362206 40.932248-40.932248 40.932248s-40.932248-18.362206-40.932248-40.932248c0-5.961782 1.291412-11.622712 3.592828-16.736173l5.122671-8.466835C603.255889 550.414915 614.904183 544.250518 627.97385 544.250518zM415.12616 436.803367c22.570042 0 40.932248 18.362206 40.932248 40.932248s-18.362206 40.932248-40.932248 40.932248-40.932248-18.362206-40.932248-40.932248S392.556119 436.803367 415.12616 436.803367zM220.697983 679.818123c22.570042 0 40.932248 18.362206 40.932248 40.932248s-18.362206 40.932248-40.932248 40.932248-40.932248-18.362206-40.932248-40.932248S198.127941 679.818123 220.697983 679.818123z" p-id="6269"></path></svg>