<?xml version="1.0" standalone="no"?><!DOCTYPE svg PUBLIC "-//W3C//DTD SVG 1.1//EN" "http://www.w3.org/Graphics/SVG/1.1/DTD/svg11.dtd"><svg t="1614254484065" class="icon" viewBox="0 0 1024 1024" version="1.1" xmlns="http://www.w3.org/2000/svg" p-id="5386" xmlns:xlink="http://www.w3.org/1999/xlink" width="200" height="200"><defs><style type="text/css"></style></defs><path d="M967.344 628.08c0.016 214.168-203.76 373.648-455.344 372.416-251.584 1.232-455.36-158.24-455.352-372.416C56.64 413.904 260.416 254.424 512 255.656c251.576-1.232 455.36 158.248 455.344 372.424z" fill="#D9454A" p-id="5387"></path><path d="M666.408 346.136l150.696-54.6c-74.336-46.624-163.368-74.696-258.288-81.32V122.352l78.352-14.976-5.68-7.064c-35.04-43.552-86.312-71.2-141.92-75.192l-1.16-0.08-23.176-1.544v186.72c-94.904 6.616-183.92 34.688-258.288 81.296l150.64 54.624s-0.344 0.696-0.928 2.064c-5.68 13.112-34.416 76.592 0.936 140.464L512 371.2l154.416 117.464c35.304-63.808 6.688-127.192 0.96-140.416-0.616-1.384-0.96-2.112-0.96-2.112z" fill="#38A891" p-id="5388"></path><path d="M857.368 717.52a23.344 23.344 0 0 0-31.696 9.52c-15.04 27.96-36.648 53.496-64.256 75.912-63.608 51.648-151.16 80.088-246.52 80.088h-5.84a23.44 23.44 0 0 0-23.392 23.496 23.44 23.44 0 0 0 23.4 23.496h5.832c106.032 0 204.032-32.16 275.944-90.544 32.44-26.344 58.016-56.664 76-90.128a23.536 23.536 0 0 0-9.472-31.84zM873.76 604.584a23.44 23.44 0 0 0-23.392 23.488l-0.008 2.48a23.44 23.44 0 0 0 23.152 23.728h0.24a23.44 23.44 0 0 0 23.392-23.248l0.016-2.96a23.44 23.44 0 0 0-23.392-23.488z" fill="#231F20" p-id="5389"></path><path d="M882.08 372.768a434.456 434.456 0 0 0-67.936-55.184l10.896-3.952a23.472 23.472 0 0 0 15.328-19.616 23.52 23.52 0 0 0-10.872-22.408c-71.776-45.024-156.864-73.512-247.28-82.936v-46.88l59.328-11.336a23.424 23.424 0 0 0 17.584-14.984 23.576 23.576 0 0 0-3.76-22.856l-5.68-7.064C610.344 36.64 552.592 6.08 491.216 1.68L466.784 0.056a23.344 23.344 0 0 0-17.536 6.28 23.544 23.544 0 0 0-7.408 17.16v165.176c-90.384 9.424-175.472 37.904-247.28 82.912a23.52 23.52 0 0 0-10.88 22.408 23.48 23.48 0 0 0 15.32 19.616l10.92 3.96a433.616 433.616 0 0 0-68 55.2C70.824 443.808 33.256 532.096 33.264 628.08c-0.016 95.984 37.56 184.264 108.656 255.312C231.424 972.84 365.12 1024 508.912 1024l2.976-0.008 2.984 0.008c144 0 277.712-51.168 367.216-140.616 71.088-71.04 108.664-159.328 108.656-255.304 0-95.984-37.568-184.272-108.656-255.312z m-415.224-139.12a23.456 23.456 0 0 0 21.768-23.44v-161.6c37.84 2.88 73.944 18.4 102.744 43.616l-36.928 7.056a23.472 23.472 0 0 0-19.024 23.08v87.856a23.456 23.456 0 0 0 21.776 23.44c72.816 5.08 142.24 23.36 203.496 53.344l-102.216 37.04a23.464 23.464 0 0 0-13.68 13.2 23.664 23.664 0 0 0 0.544 19.088l0.584 1.296 0.32 0.72c16.72 38.464 16.376 69.68 10.096 93.184L526.128 352.472a23.312 23.312 0 0 0-28.248 0L367.672 451.528c-6.288-23.496-6.632-54.728 10.112-93.2l0.36-0.824 0.36-0.84a23.6 23.6 0 0 0 0.816-19.232 23.456 23.456 0 0 0-13.784-13.4l-102.168-37.04c61.272-29.984 130.696-48.264 203.488-53.344z m382.224 616.432c-80.8 80.752-202.48 126.936-334.424 126.928h-5.536c-131.712 0-253.4-46.184-334.2-126.928-62.08-62.024-94.88-138.8-94.88-222 0-83.208 32.8-159.976 94.88-222.008 26.528-26.52 57.488-49.28 91.752-67.928l60.352 21.888c-20.648 62.32-6.528 109.984 10.104 140.04a23.336 23.336 0 0 0 34.584 7.312L512 400.68l140.28 106.72a23.32 23.32 0 0 0 34.584-7.32c16.624-30.056 30.744-77.72 10.104-140.04l60.352-21.872c34.264 18.64 65.232 41.392 91.76 67.904 62.072 62.032 94.88 138.8 94.872 222v0.008c0 83.216-32.8 159.984-94.88 222.008z" fill="#231F20" p-id="5390"></path></svg>